<svg width="455" height="24" viewBox="0 0 455 24" fill="none" xmlns="http://www.w3.org/2000/svg">
<path d="M381.094 15.46L383.712 12.968C385.07 11.694 385.336 10.826 385.336 9.874C385.336 8.138 383.964 7.06 381.836 7.06C380.226 7.06 378.868 7.662 378.112 8.684L379.386 9.664C379.932 8.964 380.73 8.642 381.682 8.642C382.886 8.642 383.502 9.16 383.502 10.056C383.502 10.602 383.334 11.176 382.382 12.086L378.49 15.782V17H385.714V15.46H381.094ZM386.26 7.2V8.726H388.332V17H390.152V7.2H386.26ZM405.038 17L402.784 13.78C404.114 13.262 404.87 12.17 404.87 10.686C404.87 8.516 403.274 7.2 400.698 7.2H396.666V17H398.486V14.144H400.698C400.824 14.144 400.95 14.144 401.076 14.13L403.078 17H405.038ZM403.036 10.686C403.036 11.918 402.21 12.646 400.614 12.646H398.486V8.74H400.614C402.21 8.74 403.036 9.454 403.036 10.686ZM413.766 13.304C413.766 10.966 412.17 9.44 409.986 9.44C407.76 9.44 406.122 11.036 406.122 13.262C406.122 15.488 407.746 17.098 410.252 17.098C411.54 17.098 412.59 16.678 413.262 15.88L412.324 14.802C411.792 15.348 411.134 15.614 410.294 15.614C408.992 15.614 408.082 14.914 407.872 13.822H413.738C413.752 13.654 413.766 13.444 413.766 13.304ZM409.986 10.84C411.134 10.84 411.96 11.582 412.1 12.66H407.858C408.026 11.568 408.852 10.84 409.986 10.84ZM420.63 9.524L418.236 15.068L415.912 9.524H414.092L417.298 17H419.104L422.31 9.524H420.63ZM424.286 8.292C424.944 8.292 425.406 7.816 425.406 7.2C425.406 6.626 424.93 6.192 424.286 6.192C423.642 6.192 423.166 6.654 423.166 7.242C423.166 7.83 423.642 8.292 424.286 8.292ZM423.404 17H425.154V9.524H423.404V17ZM434.479 13.304C434.479 10.966 432.883 9.44 430.699 9.44C428.473 9.44 426.835 11.036 426.835 13.262C426.835 15.488 428.459 17.098 430.965 17.098C432.253 17.098 433.303 16.678 433.975 15.88L433.037 14.802C432.505 15.348 431.847 15.614 431.007 15.614C429.705 15.614 428.795 14.914 428.585 13.822H434.451C434.465 13.654 434.479 13.444 434.479 13.304ZM430.699 10.84C431.847 10.84 432.673 11.582 432.813 12.66H428.571C428.739 11.568 429.565 10.84 430.699 10.84ZM446.131 9.524L444.101 15.068L442.085 9.524H440.615L438.557 15.04L436.583 9.524H434.931L437.675 17H439.355L441.315 11.848L443.247 17H444.927L447.685 9.524H446.131ZM451.103 17.098C453.203 17.098 454.491 16.188 454.491 14.788C454.491 11.862 449.871 13.206 449.871 11.694C449.871 11.204 450.375 10.854 451.439 10.854C452.153 10.854 452.867 10.994 453.581 11.414L454.253 10.084C453.581 9.678 452.447 9.44 451.453 9.44C449.437 9.44 448.163 10.364 448.163 11.778C448.163 14.76 452.783 13.416 452.783 14.844C452.783 15.362 452.321 15.67 451.215 15.67C450.277 15.67 449.269 15.362 448.611 14.928L447.939 16.258C448.611 16.734 449.857 17.098 451.103 17.098Z" fill="#1C3554"/>
<path fill-rule="evenodd" clip-rule="evenodd" d="M266 16.859L270.944 20L269.632 14.08L274 10.0969L268.248 9.58317L266 4L263.752 9.58317L258 10.0969L262.368 14.08L261.056 20L266 16.859Z" fill="#FAA307"/>
<path fill-rule="evenodd" clip-rule="evenodd" d="M290 16.859L294.944 20L293.632 14.08L298 10.0969L292.248 9.58317L290 4L287.752 9.58317L282 10.0969L286.368 14.08L285.056 20L290 16.859Z" stroke="#FAA307"/>
<path fill-rule="evenodd" clip-rule="evenodd" d="M314 16.859L318.944 20L317.632 14.08L322 10.0969L316.248 9.58317L314 4L311.752 9.58317L306 10.0969L310.368 14.08L309.056 20L314 16.859Z" stroke="#FAA307"/>
<path fill-rule="evenodd" clip-rule="evenodd" d="M338 16.859L342.944 20L341.632 14.08L346 10.0969L340.248 9.58317L338 4L335.752 9.58317L330 10.0969L334.368 14.08L333.056 20L338 16.859Z" stroke="#FAA307"/>
<path fill-rule="evenodd" clip-rule="evenodd" d="M362 16.859L366.944 20L365.632 14.08L370 10.0969L364.248 9.58317L362 4L359.752 9.58317L354 10.0969L358.368 14.08L357.056 20L362 16.859Z" stroke="#FAA307"/>
<rect y="7" width="242" height="10" rx="5" fill="#E6E6E6"/>
<rect y="7" width="132" height="10" rx="5" fill="#FAA307"/>
</svg>
