<svg width="574" height="24" viewBox="0 0 574 24" fill="none" xmlns="http://www.w3.org/2000/svg">
<path d="M490.094 15.46L492.712 12.968C494.07 11.694 494.336 10.826 494.336 9.874C494.336 8.138 492.964 7.06 490.836 7.06C489.226 7.06 487.868 7.662 487.112 8.684L488.386 9.664C488.932 8.964 489.73 8.642 490.682 8.642C491.886 8.642 492.502 9.16 492.502 10.056C492.502 10.602 492.334 11.176 491.382 12.086L487.49 15.782V17H494.714V15.46H490.094ZM495.26 7.2V8.726H497.332V17H499.152V7.2H495.26ZM509.832 13.234H508.096V11.26H506.388V13.234H503.182L507.732 7.2H505.786L500.956 13.514V14.774H506.332V17H508.096V14.774H509.832V13.234ZM523.54 17L521.286 13.78C522.616 13.262 523.372 12.17 523.372 10.686C523.372 8.516 521.776 7.2 519.2 7.2H515.168V17H516.988V14.144H519.2C519.326 14.144 519.452 14.144 519.578 14.13L521.58 17H523.54ZM521.538 10.686C521.538 11.918 520.712 12.646 519.116 12.646H516.988V8.74H519.116C520.712 8.74 521.538 9.454 521.538 10.686ZM532.268 13.304C532.268 10.966 530.672 9.44 528.488 9.44C526.262 9.44 524.624 11.036 524.624 13.262C524.624 15.488 526.248 17.098 528.754 17.098C530.042 17.098 531.092 16.678 531.764 15.88L530.826 14.802C530.294 15.348 529.636 15.614 528.796 15.614C527.494 15.614 526.584 14.914 526.374 13.822H532.24C532.254 13.654 532.268 13.444 532.268 13.304ZM528.488 10.84C529.636 10.84 530.462 11.582 530.602 12.66H526.36C526.528 11.568 527.354 10.84 528.488 10.84ZM539.132 9.524L536.738 15.068L534.414 9.524H532.594L535.8 17H537.606L540.812 9.524H539.132ZM542.788 8.292C543.446 8.292 543.908 7.816 543.908 7.2C543.908 6.626 543.432 6.192 542.788 6.192C542.144 6.192 541.668 6.654 541.668 7.242C541.668 7.83 542.144 8.292 542.788 8.292ZM541.906 17H543.656V9.524H541.906V17ZM552.981 13.304C552.981 10.966 551.385 9.44 549.201 9.44C546.975 9.44 545.337 11.036 545.337 13.262C545.337 15.488 546.961 17.098 549.467 17.098C550.755 17.098 551.805 16.678 552.477 15.88L551.539 14.802C551.007 15.348 550.349 15.614 549.509 15.614C548.207 15.614 547.297 14.914 547.087 13.822H552.953C552.967 13.654 552.981 13.444 552.981 13.304ZM549.201 10.84C550.349 10.84 551.175 11.582 551.315 12.66H547.073C547.241 11.568 548.067 10.84 549.201 10.84ZM564.633 9.524L562.603 15.068L560.587 9.524H559.117L557.059 15.04L555.085 9.524H553.433L556.177 17H557.857L559.817 11.848L561.749 17H563.429L566.187 9.524H564.633ZM569.604 17.098C571.704 17.098 572.992 16.188 572.992 14.788C572.992 11.862 568.372 13.206 568.372 11.694C568.372 11.204 568.876 10.854 569.94 10.854C570.654 10.854 571.368 10.994 572.082 11.414L572.754 10.084C572.082 9.678 570.948 9.44 569.954 9.44C567.938 9.44 566.664 10.364 566.664 11.778C566.664 14.76 571.284 13.416 571.284 14.844C571.284 15.362 570.822 15.67 569.716 15.67C568.778 15.67 567.77 15.362 567.112 14.928L566.44 16.258C567.112 16.734 568.358 17.098 569.604 17.098Z" fill="#1C3554"/>
<path fill-rule="evenodd" clip-rule="evenodd" d="M375 16.859L379.944 20L378.632 14.08L383 10.0969L377.248 9.58317L375 4L372.752 9.58317L367 10.0969L371.368 14.08L370.056 20L375 16.859Z" fill="#FAA307"/>
<path fill-rule="evenodd" clip-rule="evenodd" d="M399 16.859L403.944 20L402.632 14.08L407 10.0969L401.248 9.58317L399 4L396.752 9.58317L391 10.0969L395.368 14.08L394.056 20L399 16.859Z" fill="#FAA307"/>
<path fill-rule="evenodd" clip-rule="evenodd" d="M423 16.859L427.944 20L426.632 14.08L431 10.0969L425.248 9.58317L423 4L420.752 9.58317L415 10.0969L419.368 14.08L418.056 20L423 16.859Z" fill="#FAA307"/>
<path fill-rule="evenodd" clip-rule="evenodd" d="M447 16.859L451.944 20L450.632 14.08L455 10.0969L449.248 9.58317L447 4L444.752 9.58317L439 10.0969L443.368 14.08L442.056 20L447 16.859Z" fill="#FAA307"/>
<path fill-rule="evenodd" clip-rule="evenodd" d="M471 16.859L475.944 20L474.632 14.08L479 10.0969L473.248 9.58317L471 4L468.752 9.58317L463 10.0969L467.368 14.08L466.056 20L471 16.859Z" stroke="#FAA307"/>
<rect y="7" width="351" height="10" rx="5" fill="#E6E6E6"/>
<rect y="7" width="252" height="10" rx="5" fill="#FAA307"/>
</svg>
