<svg width="522" height="24" viewBox="0 0 522 24" fill="none" xmlns="http://www.w3.org/2000/svg">
<path d="M439.112 7.2V8.726H441.184V17H443.004V7.2H439.112ZM448.014 10.994H447.076L447.286 8.726H451.5V7.2H445.746L445.242 12.534H447.608C449.638 12.534 450.24 13.122 450.24 14.06C450.24 14.984 449.47 15.558 448.168 15.558C447.062 15.558 445.998 15.18 445.284 14.592L444.514 16.006C445.41 16.72 446.81 17.14 448.196 17.14C450.828 17.14 452.074 15.712 452.074 13.99C452.074 12.254 450.912 10.994 448.014 10.994ZM452.62 7.2V8.726H454.692V17H456.512V7.2H452.62ZM471.397 17L469.143 13.78C470.473 13.262 471.229 12.17 471.229 10.686C471.229 8.516 469.633 7.2 467.057 7.2H463.025V17H464.845V14.144H467.057C467.183 14.144 467.309 14.144 467.435 14.13L469.437 17H471.397ZM469.395 10.686C469.395 11.918 468.569 12.646 466.973 12.646H464.845V8.74H466.973C468.569 8.74 469.395 9.454 469.395 10.686ZM480.125 13.304C480.125 10.966 478.529 9.44 476.345 9.44C474.119 9.44 472.481 11.036 472.481 13.262C472.481 15.488 474.105 17.098 476.611 17.098C477.899 17.098 478.949 16.678 479.621 15.88L478.683 14.802C478.151 15.348 477.493 15.614 476.653 15.614C475.351 15.614 474.441 14.914 474.231 13.822H480.097C480.111 13.654 480.125 13.444 480.125 13.304ZM476.345 10.84C477.493 10.84 478.319 11.582 478.459 12.66H474.217C474.385 11.568 475.211 10.84 476.345 10.84ZM486.989 9.524L484.595 15.068L482.271 9.524H480.451L483.657 17H485.463L488.669 9.524H486.989ZM490.645 8.292C491.303 8.292 491.765 7.816 491.765 7.2C491.765 6.626 491.289 6.192 490.645 6.192C490.001 6.192 489.525 6.654 489.525 7.242C489.525 7.83 490.001 8.292 490.645 8.292ZM489.763 17H491.513V9.524H489.763V17ZM500.838 13.304C500.838 10.966 499.242 9.44 497.058 9.44C494.832 9.44 493.194 11.036 493.194 13.262C493.194 15.488 494.818 17.098 497.324 17.098C498.612 17.098 499.662 16.678 500.334 15.88L499.396 14.802C498.864 15.348 498.206 15.614 497.366 15.614C496.064 15.614 495.154 14.914 494.944 13.822H500.81C500.824 13.654 500.838 13.444 500.838 13.304ZM497.058 10.84C498.206 10.84 499.032 11.582 499.172 12.66H494.93C495.098 11.568 495.924 10.84 497.058 10.84ZM512.49 9.524L510.46 15.068L508.444 9.524H506.974L504.916 15.04L502.942 9.524H501.29L504.034 17H505.714L507.674 11.848L509.606 17H511.286L514.044 9.524H512.49ZM517.462 17.098C519.562 17.098 520.85 16.188 520.85 14.788C520.85 11.862 516.23 13.206 516.23 11.694C516.23 11.204 516.734 10.854 517.798 10.854C518.512 10.854 519.226 10.994 519.94 11.414L520.612 10.084C519.94 9.678 518.806 9.44 517.812 9.44C515.796 9.44 514.522 10.364 514.522 11.778C514.522 14.76 519.142 13.416 519.142 14.844C519.142 15.362 518.68 15.67 517.574 15.67C516.636 15.67 515.628 15.362 514.97 14.928L514.298 16.258C514.97 16.734 516.216 17.098 517.462 17.098Z" fill="#1C3554"/>
<path fill-rule="evenodd" clip-rule="evenodd" d="M327 16.859L331.944 20L330.632 14.08L335 10.0969L329.248 9.58317L327 4L324.752 9.58317L319 10.0969L323.368 14.08L322.056 20L327 16.859Z" fill="#FAA307"/>
<path fill-rule="evenodd" clip-rule="evenodd" d="M351 16.859L355.944 20L354.632 14.08L359 10.0969L353.248 9.58317L351 4L348.752 9.58317L343 10.0969L347.368 14.08L346.056 20L351 16.859Z" fill="#FAA307"/>
<path fill-rule="evenodd" clip-rule="evenodd" d="M375 16.859L379.944 20L378.632 14.08L383 10.0969L377.248 9.58317L375 4L372.752 9.58317L367 10.0969L371.368 14.08L370.056 20L375 16.859Z" fill="#FAA307"/>
<path fill-rule="evenodd" clip-rule="evenodd" d="M399 16.859L403.944 20L402.632 14.08L407 10.0969L401.248 9.58317L399 4L396.752 9.58317L391 10.0969L395.368 14.08L394.056 20L399 16.859Z" stroke="#FAA307"/>
<path fill-rule="evenodd" clip-rule="evenodd" d="M423 16.859L427.944 20L426.632 14.08L431 10.0969L425.248 9.58317L423 4L420.752 9.58317L415 10.0969L419.368 14.08L418.056 20L423 16.859Z" stroke="#FAA307"/>
<rect y="7" width="303" height="10" rx="5" fill="#E6E6E6"/>
<rect y="7" width="211" height="10" rx="5" fill="#FAA307"/>
</svg>
