<svg width="487" height="24" viewBox="0 0 487 24" fill="none" xmlns="http://www.w3.org/2000/svg">
<path fill-rule="evenodd" clip-rule="evenodd" d="M298 16.859L302.944 20L301.632 14.08L306 10.0969L300.248 9.58317L298 4L295.752 9.58317L290 10.0969L294.368 14.08L293.056 20L298 16.859Z" fill="#FAA307"/>
<path fill-rule="evenodd" clip-rule="evenodd" d="M322 16.859L326.944 20L325.632 14.08L330 10.0969L324.248 9.58317L322 4L319.752 9.58317L314 10.0969L318.368 14.08L317.056 20L322 16.859Z" fill="#FAA307"/>
<path fill-rule="evenodd" clip-rule="evenodd" d="M346 16.859L350.944 20L349.632 14.08L354 10.0969L348.248 9.58317L346 4L343.752 9.58317L338 10.0969L342.368 14.08L341.056 20L346 16.859Z" stroke="#FAA307"/>
<path fill-rule="evenodd" clip-rule="evenodd" d="M370 16.859L374.944 20L373.632 14.08L378 10.0969L372.248 9.58317L370 4L367.752 9.58317L362 10.0969L366.368 14.08L365.056 20L370 16.859Z" stroke="#FAA307"/>
<path fill-rule="evenodd" clip-rule="evenodd" d="M394 16.859L398.944 20L397.632 14.08L402 10.0969L396.248 9.58317L394 4L391.752 9.58317L386 10.0969L390.368 14.08L389.056 20L394 16.859Z" stroke="#FAA307"/>
<path d="M413.682 10.994H412.744L412.954 8.726H417.168V7.2H411.414L410.91 12.534H413.276C415.306 12.534 415.908 13.122 415.908 14.06C415.908 14.984 415.138 15.558 413.836 15.558C412.73 15.558 411.666 15.18 410.952 14.592L410.182 16.006C411.078 16.72 412.478 17.14 413.864 17.14C416.496 17.14 417.742 15.712 417.742 13.99C417.742 12.254 416.58 10.994 413.682 10.994ZM418.288 7.2V8.726H420.36V17H422.18V7.2H418.288ZM437.065 17L434.811 13.78C436.141 13.262 436.897 12.17 436.897 10.686C436.897 8.516 435.301 7.2 432.725 7.2H428.693V17H430.513V14.144H432.725C432.851 14.144 432.977 14.144 433.103 14.13L435.105 17H437.065ZM435.063 10.686C435.063 11.918 434.237 12.646 432.641 12.646H430.513V8.74H432.641C434.237 8.74 435.063 9.454 435.063 10.686ZM445.793 13.304C445.793 10.966 444.197 9.44 442.013 9.44C439.787 9.44 438.149 11.036 438.149 13.262C438.149 15.488 439.773 17.098 442.279 17.098C443.567 17.098 444.617 16.678 445.289 15.88L444.351 14.802C443.819 15.348 443.161 15.614 442.321 15.614C441.019 15.614 440.109 14.914 439.899 13.822H445.765C445.779 13.654 445.793 13.444 445.793 13.304ZM442.013 10.84C443.161 10.84 443.987 11.582 444.127 12.66H439.885C440.053 11.568 440.879 10.84 442.013 10.84ZM452.657 9.524L450.263 15.068L447.939 9.524H446.119L449.325 17H451.131L454.337 9.524H452.657ZM456.313 8.292C456.971 8.292 457.433 7.816 457.433 7.2C457.433 6.626 456.957 6.192 456.313 6.192C455.669 6.192 455.193 6.654 455.193 7.242C455.193 7.83 455.669 8.292 456.313 8.292ZM455.431 17H457.181V9.524H455.431V17ZM466.506 13.304C466.506 10.966 464.91 9.44 462.726 9.44C460.5 9.44 458.862 11.036 458.862 13.262C458.862 15.488 460.486 17.098 462.992 17.098C464.28 17.098 465.33 16.678 466.002 15.88L465.064 14.802C464.532 15.348 463.874 15.614 463.034 15.614C461.732 15.614 460.822 14.914 460.612 13.822H466.478C466.492 13.654 466.506 13.444 466.506 13.304ZM462.726 10.84C463.874 10.84 464.7 11.582 464.84 12.66H460.598C460.766 11.568 461.592 10.84 462.726 10.84ZM478.158 9.524L476.128 15.068L474.112 9.524H472.642L470.584 15.04L468.61 9.524H466.958L469.702 17H471.382L473.342 11.848L475.274 17H476.954L479.712 9.524H478.158ZM483.13 17.098C485.23 17.098 486.518 16.188 486.518 14.788C486.518 11.862 481.898 13.206 481.898 11.694C481.898 11.204 482.402 10.854 483.466 10.854C484.18 10.854 484.894 10.994 485.608 11.414L486.28 10.084C485.608 9.678 484.474 9.44 483.48 9.44C481.464 9.44 480.19 10.364 480.19 11.778C480.19 14.76 484.81 13.416 484.81 14.844C484.81 15.362 484.348 15.67 483.242 15.67C482.304 15.67 481.296 15.362 480.638 14.928L479.966 16.258C480.638 16.734 481.884 17.098 483.13 17.098Z" fill="#1C3554"/>
<rect y="7" width="274" height="10" rx="5" fill="#E6E6E6"/>
<rect y="7" width="175" height="10" rx="5" fill="#FAA307"/>
</svg>
