<svg width="610" height="24" viewBox="0 0 610 24" fill="none" xmlns="http://www.w3.org/2000/svg">
<path d="M522.682 10.994H521.744L521.954 8.726H526.168V7.2H520.414L519.91 12.534H522.276C524.306 12.534 524.908 13.122 524.908 14.06C524.908 14.984 524.138 15.558 522.836 15.558C521.73 15.558 520.666 15.18 519.952 14.592L519.182 16.006C520.078 16.72 521.478 17.14 522.864 17.14C525.496 17.14 526.742 15.712 526.742 13.99C526.742 12.254 525.58 10.994 522.682 10.994ZM531.88 17.14C534.218 17.14 535.982 15.32 535.982 12.1C535.982 8.88 534.218 7.06 531.88 7.06C529.556 7.06 527.792 8.88 527.792 12.1C527.792 15.32 529.556 17.14 531.88 17.14ZM531.88 15.558C530.55 15.558 529.626 14.466 529.626 12.1C529.626 9.734 530.55 8.642 531.88 8.642C533.224 8.642 534.148 9.734 534.148 12.1C534.148 14.466 533.224 15.558 531.88 15.558ZM541.3 17.14C543.638 17.14 545.402 15.32 545.402 12.1C545.402 8.88 543.638 7.06 541.3 7.06C538.976 7.06 537.212 8.88 537.212 12.1C537.212 15.32 538.976 17.14 541.3 17.14ZM541.3 15.558C539.97 15.558 539.046 14.466 539.046 12.1C539.046 9.734 539.97 8.642 541.3 8.642C542.644 8.642 543.568 9.734 543.568 12.1C543.568 14.466 542.644 15.558 541.3 15.558ZM559.573 17L557.319 13.78C558.649 13.262 559.405 12.17 559.405 10.686C559.405 8.516 557.809 7.2 555.233 7.2H551.201V17H553.021V14.144H555.233C555.359 14.144 555.485 14.144 555.611 14.13L557.613 17H559.573ZM557.571 10.686C557.571 11.918 556.745 12.646 555.149 12.646H553.021V8.74H555.149C556.745 8.74 557.571 9.454 557.571 10.686ZM568.301 13.304C568.301 10.966 566.705 9.44 564.521 9.44C562.295 9.44 560.657 11.036 560.657 13.262C560.657 15.488 562.281 17.098 564.787 17.098C566.075 17.098 567.125 16.678 567.797 15.88L566.859 14.802C566.327 15.348 565.669 15.614 564.829 15.614C563.527 15.614 562.617 14.914 562.407 13.822H568.273C568.287 13.654 568.301 13.444 568.301 13.304ZM564.521 10.84C565.669 10.84 566.495 11.582 566.635 12.66H562.393C562.561 11.568 563.387 10.84 564.521 10.84ZM575.165 9.524L572.771 15.068L570.447 9.524H568.627L571.833 17H573.639L576.845 9.524H575.165ZM578.821 8.292C579.479 8.292 579.941 7.816 579.941 7.2C579.941 6.626 579.465 6.192 578.821 6.192C578.177 6.192 577.701 6.654 577.701 7.242C577.701 7.83 578.177 8.292 578.821 8.292ZM577.939 17H579.689V9.524H577.939V17ZM589.014 13.304C589.014 10.966 587.418 9.44 585.234 9.44C583.008 9.44 581.37 11.036 581.37 13.262C581.37 15.488 582.994 17.098 585.5 17.098C586.788 17.098 587.838 16.678 588.51 15.88L587.572 14.802C587.04 15.348 586.382 15.614 585.542 15.614C584.24 15.614 583.33 14.914 583.12 13.822H588.986C589 13.654 589.014 13.444 589.014 13.304ZM585.234 10.84C586.382 10.84 587.208 11.582 587.348 12.66H583.106C583.274 11.568 584.1 10.84 585.234 10.84ZM600.666 9.524L598.636 15.068L596.62 9.524H595.15L593.092 15.04L591.118 9.524H589.466L592.21 17H593.89L595.85 11.848L597.782 17H599.462L602.22 9.524H600.666ZM605.638 17.098C607.738 17.098 609.026 16.188 609.026 14.788C609.026 11.862 604.406 13.206 604.406 11.694C604.406 11.204 604.91 10.854 605.974 10.854C606.688 10.854 607.402 10.994 608.116 11.414L608.788 10.084C608.116 9.678 606.982 9.44 605.988 9.44C603.972 9.44 602.698 10.364 602.698 11.778C602.698 14.76 607.318 13.416 607.318 14.844C607.318 15.362 606.856 15.67 605.75 15.67C604.812 15.67 603.804 15.362 603.146 14.928L602.474 16.258C603.146 16.734 604.392 17.098 605.638 17.098Z" fill="#1C3554"/>
<path fill-rule="evenodd" clip-rule="evenodd" d="M407 16.859L411.944 20L410.632 14.08L415 10.0969L409.248 9.58317L407 4L404.752 9.58317L399 10.0969L403.368 14.08L402.056 20L407 16.859Z" fill="#FAA307"/>
<path fill-rule="evenodd" clip-rule="evenodd" d="M431 16.859L435.944 20L434.632 14.08L439 10.0969L433.248 9.58317L431 4L428.752 9.58317L423 10.0969L427.368 14.08L426.056 20L431 16.859Z" fill="#FAA307"/>
<path fill-rule="evenodd" clip-rule="evenodd" d="M455 16.859L459.944 20L458.632 14.08L463 10.0969L457.248 9.58317L455 4L452.752 9.58317L447 10.0969L451.368 14.08L450.056 20L455 16.859Z" fill="#FAA307"/>
<path fill-rule="evenodd" clip-rule="evenodd" d="M479 16.859L483.944 20L482.632 14.08L487 10.0969L481.248 9.58317L479 4L476.752 9.58317L471 10.0969L475.368 14.08L474.056 20L479 16.859Z" fill="#FAA307"/>
<path fill-rule="evenodd" clip-rule="evenodd" d="M503 16.859L507.944 20L506.632 14.08L511 10.0969L505.248 9.58317L503 4L500.752 9.58317L495 10.0969L499.368 14.08L498.056 20L503 16.859Z" fill="#FAA307"/>
<rect y="7" width="383" height="10" rx="5" fill="#E6E6E6"/>
<rect y="7" width="298" height="10" rx="5" fill="#FAA307"/>
</svg>
